<?xml version="1.0" encoding="UTF-8"?>
<svg viewBox="0 0 400 400" xmlns="http://www.w3.org/2000/svg">
 <path d="m24.425 237.09c10.183 7.0821 36.42 24.864 42.261 10.541-9.8509-7.0035-41.282-14.316-17.786-26.455 18.606-12.895 42.279-18.565 65.265-17.472 25.225-12.254-2.5426-34.928-16.722-43.49-11.334-13.039-24.393-24.379-37.421-35.852-11.044-6.8048-21.119-33.372 1.6339-23.581 24.984-1.7956 10.683-30.342 19.45-42.843 17.591 7.6576 30.166 31.448 44.53 46.14 12.462 14.49 8.6208 43.725 20.258 52.932 5.8535-25.397-6.8892-51.059-20.825-72.328-11.681-15.291-23.993-31.758-41.909-41.014-26.723-8.0943-12.45 26.963-15.332 39.779-3.5441 15.684-38.519 0.0625-31.055 24.359 7.2651 19.524 24.436 34.127 39.946 48.235 11.474 11.421 29.13 17.413 39.565 28.569-4.5945 19.705-38.091 5.2824-52.272 18.235-13.551 6.3368-45.512 16.574-39.585 34.245zm46.342 34.044c12.23 5.2154-1.392 33.522 21.02 23.123 24.542-6.2888 47.316-22.881 55.244-46.058 14.439-0.37596 12.735-19.314-0.57882-12.31-10.066 15.964-23.965 27.152-38.099 38.976-13.004 15.121-37.033 5.0048-28.223-14.002-2.8669-14.027-18.641 3.6552-9.3625 10.27zm2.5547-37.23c15.025 9.1602 44.096-10.034 44.331-16.756-14.273-1.2-41.423 7.2558-44.331 16.756zm3.8049-107.85c13.662 8.7361 29.238 38.508 40.639 35.685-7.7125-16.021-20.031-32.033-36.281-41.026-3.7044-1.6231-5.7135 2.5992-4.3582 5.3411zm15.69 126.17c13.295 4.8513 44.731-14.795 31.013-22.758-11.778 5.5331-23.49 12.366-31.013 22.758zm3.3788-142.95c11.438 17.444 22.191 39.58 33.772 54.217 1.9264-15.224-9.4924-31.858-16.652-46.049-1.2082-4.6378-23.394-24.656-17.12-8.1681zm26.334 68.708c11.295-5.6284-6.93-13.388 0 0zm1.0188 27.166c13.453 4.0968 12.26 19.416 20.821 24.278 8.3827-6.3552 15.993-9.6883 25.406-5.5191 14.297-7.0057 1.0354-14.45-5.7768-16.233-4.0291-7.733-16.379-13.579-9.0984-0.02795 8.0639 20.242-24.588 1.5262-10.282-9.8593 8.387-14.67 35.71-19.361 40.503 0.31919 16.637 10.785 5.3199-25.285-8.6357-20.596-11.838-1.6669-29.241 6.676-36.484 7.4067 7.2102 19.877-9.1488 10.623-16.454 20.231zm43.834 157.25c4.3506 9.7327 9.7416 31.635 25.462 24.17-17.389-9.6155-6.1089-37.326-27.88-43.556-7.467-11.219-1.1644-41.32-20.859-38.108 16.309 15.838 10.784 38.72 23.277 57.494zm-15.917-207.49c9.1236-1.4781-6.3104-9.7852 0 0zm2.8058 11.286c9.1813 3.2069-1.769-8.8337 0 0zm6.5997 86.327c5.4996 28.323 17.184 55.102 31.375 80.501 2.7938 13.586 25.05 36.986 32.64 14.574 1.939-20.255 21.717-24.245 39.288-19.799 23.053 3.8394 34.628-18.261 18.07-33.129-16.871-27.226-40.693-53.329-73.796-63.153-3.4955-8.3497-21.139-12.909-16.074-1.3578 25.114 12.877 53.753 25.113 67.39 50.147-5.0739 1.7202-18.344-23.235-26.839-18.784 9.2292 19.368 37.269 31.882 40.597 51.231-13.79 13.303-40.367-6.2493-51.679 13.189-1.7082 10.701-12.569 18.475-17.227 3.6603-9.3229-19.909-15.56-41.51-30.363-58.678-2.3347-2.6772-13.478-38.356-13.383-18.402zm24.747-157.31c7.7531-20.708 12.835-43.612 28.516-60.522 11.61 6.6252 9.3499 33.555 29.609 32.311 9.193-3.8708 37.213-22.015 29.559-0.53906-6.6508 20.228-21.261 36.5-34.08 53.094-7.2444 17.283-24.263 25.894-37.041 39.282-8.9417 6.1898-9.4734 23.83 0.64269 7.9121 17.572-13.563 35.782-26.533 49.127-44.101 16.048-19.111 28.354-40.753 38.117-63.208 3.8654-25.312-30.365-18.449-39.461-4.0174-18.946 5.5337-21.834-19.933-23.87-28.491 22.549-4.2264-1.2185-15.512-13.596-6.0656-44.028 45.548-61.895 189.45-27.524 74.344zm22.562 208.62c17.581-3.1802-23.298-51.345-35.457-60.044-0.02857 16.54 26.006 45.699 35.457 60.044zm-29.867-157.1c18.257-16.246 23.329-40.724 34.92-60.787-8.8252-19.13-32.634 45.874-34.92 60.787zm-0.16308 18.279c20.301 2.1598-4.8133-16.682 0 0zm7.059-10.098c12.812 10.189-0.04829-14.181 0 0zm2.2301 90.952c14.478 17.662 31.093 33.925 47.686 49.002 29.709 7.2258-28.483-45.725-47.686-49.002zm6.1611-97.64c20.621-11.806 34.419-33.796 42.335-54.211-13.494-1.9456-40.437 40.837-42.335 54.211zm9.9612 35.343c18.971 6.1814 35.295-13.22 54.965-12.027 21.912-3.0855 44.113-4.5374 66.173-6.2444 15.865-2.2541 30.679 9.7565 14.441 21.719-16.897 12.422-5.8916 27.97 4.9004 39.064-1.1456 16.608-29.351 7.2554-42.229 7.0311-18.526-4.3276-37.17-8.1423-56.2-9.6592-9.492-1.5491-35.621-9.8666-34.286-2.2514 20.138 9.4268 43.1 11.826 64.033 19.362 24.522 5.4594 50.015 6.9992 75.1 4.7416 27.13-12.919-12.032-31.201-8.9605-46.282 5.6616-12.317 45.331-25.619 18.82-36.945-34.295-12.237-73.316-9.8239-107.91 0.32165-16.608 6.166-34.32 13.629-49.783 17.941l0.93402 3.2285zm83.118 6.5805c-6.6124-17.228-57.829 0.34843-72.469 7.3008 8.8182 4.7816 56.142-2.971 72.469-7.3008zm-67.529 121.27c2.9504-4.7319-6.9045 0.11237 0 0zm7.0284-101.26c19.013 0.96772 40.642 11.371 58.175 0.22339-5.8957-7.7753-58.37-7.5358-58.175-0.22339z" fill="#e2cae1" stroke="#f291e9" stroke-width=".63311"/>
 <path d="m15.526 229.48c6.5724-22.713 36.706-33.154 59.32-38.864 11.02-0.10879 39.589-6.2918 17.177-15.879-26.352-12.718-47.676-33.843-63.19-57.242-11.43-19.336 10.71-36.257 26.76-40.206 3.7386-12.597-7.7741-35.869 11.732-39.546-5.261 15.901 6.702 43.266-6.6333 51.929-21.33-6.4386-36.623 13.58-19.692 28.991 16.811 25.381 40.679 47.574 69.413 60.761 18.527 16.156-17.267 14.668-27.778 15.374-21.227 5.2367-42.395 14.481-59.213 27.69-14.305 25.303 28.604 24.986 41.054 37.166 3.5149 14.658 5.1845 35.862 17.152 42.458-21.254 4.3132-14.734-35.064-32.461-42.019-13.696-6.8897-36.115-11.793-33.642-30.614zm55.471-6.4448c18.632-8.4795 40.32-26.152 58.718-8.9537 11.889 0.39241 5.6875 13.726 10.445 20.883-3.8582 11.694-26.175 30.654-32.504 30.245 3.9292-13.174 32.536-28.877 18.764-39.945-13.871 6.9605-28.392 24.658-45.21 19.494 8.061-11.945 42.63-17.223 37.486-29.233-13.65-4.1843-45.8 15.629-47.699 7.5098zm-0.5491-96.837c11.185 6.671 35.751 25.916 30.813 32.367-11.49-9.4743-25.467-18.306-30.813-32.367zm7.8234-92.046c27.233 3.0552 43.28 27.433 57.79 46.505 9.407 10.834 13.869 34.793 20.196 40.122 7.0263-17.395 3.8265-37.158 13.352-54.08 8.3501-21.749 21.362-42.406 40.186-57.665 11.288-7.0825 26.73 3.2498 8.3524 8.1458-28.452 19.088-39.249 52.716-47.407 82.954-6.473 15.129-2.0226 40.335-14.358 49.7-15.019-14.778-10.605-39.292-24.099-55.64-13.743-21.556-30.836-42.211-54.198-55.269-1.2131-0.90356-2.3249-4.3559 0.18654-4.773zm6.1896 71.28c16.714 14.917 30.304 33.094 39.061 52.768 1.2784 17.827-11.908-12.23-16.828-15.417-6.7626-11.388-22.6-25.342-22.233-37.351zm9.4714 208.35c13.845-10.208 15.565-26.474 32.827-33.066 13.074-7.735 16.89-34.587 31.538-33.355 4.6529 16.479 8.9703 35.324 16.451 51.891 11.965 19.276 17.13 46.178 35.978 59.516 23.931 0.62974 13.85-43.386 42.856-30.454 18.855 3.6975 48.992-2.9484 34.079-26.123-17.808-31.017-43.881-60.907-80.505-73.048-5.3383-14.393 23.96 1.4621 32.081 1.6154 36.066 12.048 75.289 19.621 113.52 14.421 25.33-9.3274 0.56239-32.609-10.35-39.488-0.01649-16.494 29.523-32.438 37.492-31.604-4.3968 15.188-35.739 28.506-11.396 43.02 11.098 16.938-4.2389 40.98-25.626 39.309-25.146 2.4758-50.308-1.5933-74.937-5.8213-3.4683 13.227 23.583 27.92 27.126 43.845 16.412 22.378-6.8024 49.343-33.949 42.387-26.277-3.9588-24.036 32.899-50.071 31.53-13.694-3.697-21.592-18.708-29.378-25.705-4.643-19.568-16.322-38.055-21.903-57.94 1.4108-9.9058-10.26-26.86-15.441-9.6905-14.962 13.882-29.962 28.355-45.881 40.899-4.8774 2.9005-13.961 5.0044-4.5068-2.1388zm58.097-56.336c8.7339 0.99574-1.2131-9.2712 0 0zm-47.814-162.97c24.566 8.3962 33.463 74.341 26.589 57.531-4.6564-20.552-21.417-38.723-26.589-57.531zm8.324 73.019c19.136 4.8511-4.372 11.097 0 0zm15.999 8.136c16.496-11.655 10.587 40.353 1.8864 14.468 0.31025-4.9411-5.0294-9.634-1.8864-14.468zm12.462 132.76c11.188 3.286-4.4992 15.273 0 0zm1.7388-105.6c13.629-5.186 13.461 25.386 0.19408 7.8542-1.409-2.3782-1.5897-5.4268-0.19408-7.8542zm2.3287 114.71c19.195 6.6922-1.9877 32.374 18.081 37.569 4.1307 11.263 13.449 26.793 13.99 35.282-20.682-13.166-24.09-38.274-29.946-59.25-0.9334-4.4987-1.7378-9.0303-2.126-13.602zm7.2037-94.067c20.638-8.0855 33.022 31.96 6.9462 10.009-5.1196-1.0545-10.434-4.4277-6.9462-10.009zm0.91153-50.899c6.8191-6.9914-1.8253 12.359 0 0zm5.6626 19.791c7.5281 4.152 12.352-0.29182 16.922-2.3789 6.7602 13.247-22.336 18.071-16.922 2.3789zm8.6416-25.962c13.978-12.74 5.9842 21.834-0.11685 2.9664-0.40773-0.98925 0.02485-1.9774 0.11685-2.9664zm3.0121 40.906c2.4806 1.1321-1.4592 1.8188 0 0zm-0.17689 44.06c12.421 15.888 24.196 33.02 31.229 51.51-6.6838 4.1751-15.793-21.197-21.969-28.548-2.867-7.2542-9.8046-15.298-9.2604-22.962zm3.9742-115.95c6.7529-19.565 11.677-40.485 23.969-57.769 11.829-2.4793-7.0766 19.778-6.8664 26.889-5.428 11.178-7.9376 27.597-17.736 34.742l0.63402-3.8623zm5.911 16.846c5.4108 4.1904-3.3696 3.7814 0 0zm1.2383 51.452c19.451-2-4.5785 10.924 0 0zm0.40837 40.346c19.807 14.868 32.155 36.145 45.125 56.076 2.6171 19.662-16.777-15.615-23.29-20.168-6.7588-11.546-20.709-22.89-21.836-35.908zm2.4135-78.057c14.966-13.471-3.1042 10.976 0 0zm-1.17 7.0735c2.5672 1.4844-2.5772 1.4692 0 0zm0.6225 181.88c14.853 2.5455 1.861 34.405 0.01113 10.106-0.5461-3.311-1.4499-6.8468-0.01113-10.106zm1.7029-214c14.325-19.293 20.209-43.556 38.295-60.479-5.5683 25.374-21.505 47.366-36.242 68.563-3.0388-0.56963-1.4242-6.2514-2.0526-8.0838zm-0.07288 76.596c9.2642-3.0697-1.989 6.7654 0 0zm2.8985 19.11c23.948-2.2418 34.982 21.481 49.536 34.728 6.4479 3.9957 22.798 26.721 11.701 24.211-14.442-17.053-28.071-35.696-47.121-48.392-4.8954-3.147-11.483-5.1888-14.116-10.547zm5.3855-81.569c14.092-14.185 28.414-28.353 38.342-45.485 30.449-29.144-22.234 37.942-29.937 46.024-2.3356 1.8472-10.009 6.4564-8.4047-0.53911zm0.42391 48.35c3.1778-10.745 4.1214-11.118 11.389-2.0531 9.6874 10.397-10.914 9.987-11.389 2.0531zm9.0351-35.565c7.5873-12.841 34.328 4.8851 11.53 6.9844-2.9979-3.005-17.645 0.52381-11.53-6.9844zm15.015 19.47c16.487-8.3618 35.446-8.2794 52.961-13.054 9.3526-4.0842 38.558 2.1286 14.484 4.7113-23.041 2.2817-45.314 7.5506-67.384 12.265l-0.90769-1.1399 0.84663-2.7828zm13.751-43.187c26.682-23.909 46.232-54.457 59.555-86.389 8.7819-25.159-23.304-23.514-34.212-8.0812-17.749 17.978-31.569-9.4056-20.821-23.831 0.91169-8.8254-1.3971-22.744 9.3581-10.136 0.04111 10.561-1.5602 33.843 15.296 18.805 17.71-12.495 47.031 5.6198 39.537 25.778-6.8487 28.91-27.312 53.049-46.962 75.456-10.463 8.7496-22.15 26.57-36.791 23.782 3.664-6.1246 10.236-10.107 15.04-15.383zm-12.373 67.058c21.275 4.9646 51.453 1.7099 67.241 11.866-18.768 1.8307-37.818-2.4657-56.422-4.8768-4.0444-1.1299-9.8895-2.4659-10.819-6.9897zm4.2553-11.315c22.552-4.2944 46.676-4.6312 69.182-3.4525 4.4004 10.11-24.226 4.8621-32.721 8.071-8.4963-1.1002-37.322 4.2257-36.462-4.6185zm7.1313-38.009c30.65-18.365 69.008-20.472 104.47-18.995 10.502 1.1933 37.694 5.9623 33.527 15.131-18.942 0.47077-37.154-8.768-56.659-5.515-25.896-0.27603-51.499 5.1516-75.528 13.586-2.9598 0.88844-8.3668-0.26188-5.8104-4.208z" fill="#9500a6" stroke="#cb009f" stroke-width=".63311"/>
 <path d="m21.524 219.38c18.245-17.087 42.572-27.488 68.26-29.528 10.606 1.6878 20.902-18.352 25.816-3.9655-13.659 14.331-40.826 1.417-57.563 15.958-13.57 5.2046-27.601 13.116-38.252 20.483l1.7394-2.9477zm-0.87959 19.886c14.406 14.931 49.297 9.7204 47.131 37.408-3.6852 15.162-6.5915-17.583-16.867-17.171-9.1733-5.8155-28.999-9.1771-30.264-20.237zm8.3792-138.89c4.3298-18.169 41.757-17.952 27.275-42.358-2.3103-9.5623 14.391-28.245 8.3787-8.2104-1.3231 12.209 11.016 47.334-13.894 37.277-27.917 0.86029-17.245 33.288-2.15 44.119 13.532 16.903 30.448 31.167 48.372 43.902-27.382-10.092-46.695-32.322-63.887-53.657-3.7514-6.3529-5.3792-13.883-4.0932-21.072zm43.128 195.98c19.324-0.19984 1.7696 15.585 0 0zm0.75437-166.48c10.601 4.7162 29.609 22.281 26.944 26.866-9.3953-8.5499-19.75-16.484-26.944-26.866zm0.68104 92.914c11.811-6.5486 45.892-24.392 45.264-8.8001-15.752-0.64322-29.717 8.3697-45.264 8.8001zm5.5429-186.79c27.587 3.2202 42.903 28.526 57.371 47.877 9.3905 11.472 12.64 35.567 20.307 41.466 8.5381-17.156 3.204-37.685 12.984-54.86 8.2456-22.691 21.234-44.594 41.163-60.115 16.261-7.4575 15.971 5.4825 2.2051 9.1469-26.046 21.059-36.315 53.754-43.867 84.004-6.7542 12.74-2.3375 37.262-13.253 43.966-13.95-13.262-8.7495-34.525-20.788-49.521-13.044-24.139-33.443-45.052-56.532-60.554l0.40898-1.4101zm6.423 206.28c15.126-9.3119 31.731-18.894 45.784-27.757 12.616 12.996-13.056 8.8282-18.058 18.479-5.0076 4.3029-27.409 16.738-27.725 9.2774zm0.32999-134.25c13.879 14.645 32.213 32.562 34.718 51.178-11.686-14.448-23.068-29.23-32.688-45.07-0.92378-1.9526-1.667-3.9938-2.0304-6.1072zm9.8107 205.68c14.101-10.453 19.987-25.147 34.317-34.9 7.0935-11.01 16.151-22.834 26.523-20.166 10.481-1.1521 6.7852 23.917 13.896 32.2 9.3828 22.9 21.351 45.004 34.207 66.263 21.663 11.179 24.246-21.035 33.9-28.743 17.53-0.35578 38.98 5.8734 52.378-5.9852 5.1628-21.115-14.197-37.244-25.559-53.258-15.503-18.107-35.396-33.548-58.931-41.517 10.261-9.2863 34.202 7.9057 49.051 8.9638 31.748 8.8713 65.713 13.759 98.662 9.0969 24.722-8.4266 4.0213-33.259-9.9471-38.792-3.9799-16.379 27.461-31.935 33.668-29.959-9.0807 12.207-32.854 26.802-11.733 40.426 13.432 20.81-10.18 43.784-33.557 38.533-23.819 0.39814-47.53-3.0316-70.642-8.1992 5.4786 19.282 26.995 30.731 33.601 50.031 13.325 23.54-12.326 42.731-36.576 38.268-26.394-4.1691-21.675 29.81-45.365 30.323-20.818-2.0568-28.059-27.107-37.554-42.207-9.8694-17.926-12.075-38.493-21.562-56.302-10.227-3.3006-19.106 19.231-31.142 24.238-10.218 5.0247-17.932 19.938-27.636 21.685zm5.1327-136.87c4.0179 2.647-2.9915 0.29823 0 0zm5.6587-78.588c7.7493 3.6769 8.9 19.117 1.8236 5.6518 0.58333-0.81798-4.7959-4.7371-1.8236-5.6518zm6.8077 162.06c7.0717-9.1002 14.641-30.14 25.086-28.652 3.6493 13.843-24.242 26.364-25.086 28.652zm1.2381-91.143c9.8731 3.5007-4.4703 4.4685 0 0zm1.9941-54.458c11.067 11.088 24.63 31.763 18.138 44.775-4.2418-15.681-12.843-29.41-18.138-44.775zm6.7812 47.599c1.6159 2.9519-1.3587 1.0082 0 0zm6.4457 13.482c15.604-3.6139 6.0416 37.651 1.5092 11.426-1.0291-3.6089-3.8067-7.7198-1.5092-11.426zm14.456 26.937c11.812 2.4894 7.5842 19.711-0.59318 6.5462-0.75287-2.0881-1.1001-4.721 0.59318-6.5462zm3.7445 117.96c8.7369 4.8537-1.8393 11.181 0 0zm4.7107-72.356c11.192-10.546-3.9582 12.745 0 0zm0.12097-24.415c12.831-8.6497 32.336 25.501 11.75 11.077-3.9927-4.0511-15.794-2.4045-11.75-11.077zm4.4372 128.63c10.75 6.7185 14.431 29.426 17.359 33.699-9.8983-8.2287-18.087-20.999-17.359-33.699zm2.5828-159.4c5.8432-0.75062-4.281 4.8267 0 0zm2.8172 5.8433c4.3978-10.517 22.18-6.6591 6.7656 0.65091-2.1794 1.59-9.6121 6.1081-6.7656-0.65091zm5.9261-32.324c14.438-3.8809-1.8911 17.567-0.03005 0.10354l0.03005-0.10354zm4.448 88.654c3.189 3.6083-2.8154 0.95529 0 0zm2.3934 6.8915c11.275 8.4728 23.693 34.981 22.814 38.765-8.4578-12.412-18.724-24.282-22.814-38.765zm2.626-135.08c3.9287-11.358 13.955-43.419 19.424-40.775-6.093 10.621-13.765 43.406-19.487 41.14l0.06237-0.365zm5.5324 76.561c8.2759-0.76281-2.2636 5.094 0 0zm0.94833 43.919c18.218 15.539 32.595 35.404 42.208 56.586-11.671-9.5995-27.34-30.769-37.902-46.336 0.42469-2.218-10.102-10.119-4.3058-10.25zm1.9517-106.71c11.736-14.39 23.331-48.876 33.302-51.536-6.7518 20.874-19.014 40.219-32.535 57.385-1.1666-1.7702-0.63292-3.9178-0.76728-5.8494zm0.10354 222.81c9.4114 14.564-6.966 7.9816 0 0zm3.8657-126.4c22.298 0.39658 32.273 22.106 46.629 34.594 5.6834 5.063 18.491 21.224 12.957 22.515-17.77-20.711-34.845-44.01-60.913-56.115l1.3266-0.99389zm5.6522-84.544c8.0105-4.2042 19.83-21.308 21.495-18.857-0.33638 4.4436-22.373 33.888-21.495 18.857zm-0.01889 51.235c6.2878-8.2793 16.678 10.636 1.3838 2.1609l-1.3073-0.88676-0.07652-1.2741zm7.8048-35.511c7.0257-11.124 29.799 6.1508 8.9644 4.3575-1.7951-2.0674-13.1 0.64038-8.9644-4.3575zm17.99-13.491c32.747-28.937 59.97-64.643 72.646-105.41 14.4 7.3099-4.2012 30.933-8.9238 42.002-14.63 24.442-33.776 46.61-56.821 64.566-2.5079 1.7474-14.912 4.3816-6.9013-1.1627zm-1.3367 32.025c16.137-6.2273 33.798-7.4175 50.233-11.832 6.9217-2.0149 26.487 1.508 9.0688 3.245-20.273 2.8322-40.81 6.7016-60.433 11.375l0.01667-0.89097 1.1149-1.8972zm1.7556 25.56c17.959 3.3508 47.14 4.1025 58.264 8.3501-19.222 3.4208-39.34-1.9435-57.773-6.9599-0.83903 0.76817-4.532-2.9054-0.49067-1.3902zm4.6029-93.273c3.7973-7.8811 17.292-21.164 6.7002-4.8944-2.1545 4.7116-13.858 16.429-6.7002 4.8944zm-1.5925 81.385c21.66-3.8354 45.249-5.4292 66.676-1.931-16.997 3.495-34.796 6.8532-52.381 4.8643-4.8133-0.58544-9.8554-0.94692-14.295-2.9333zm7.5539-39.642c35.946-16.407 78.111-21.289 117.22-13.751 9.6521 1.0219 23.53 11.504 5.6896 8.5218-18.071-5.7825-36.689-5.1747-55.422-4.065-21.615 0.92448-42.703 6.1595-62.945 12.866-2.692 0.93904-6.9776-0.28855-4.5438-3.5719zm0.95463-126.48c9.48-4.9667 0.1314-32.705 10.963-14.769-4.426 15.674 4.0743 29.787 18.838 14.483 6.217-4.4848 30.13-0.41115 11.229 3.2432-11.517 9.3385-42.43 28.58-41.239 0.83069-0.07014-1.2692 0.08225-2.527 0.20894-3.7882z" fill="#5d004c" stroke="#640f60"/>
</svg>
